# xmcd CD database file
#
# Track frame offsets:
#	150
#	17652
#	45234
#	75843
#	98871
#	119616
#	148773
#	182736
#	190158
#	210531
#	234756
#	247497
#
# Disc length: 3502 seconds
#
# Revision: 0
# Processed by: cddbd v1.5.2PL0 Copyright (c) Steve Scherf et al.
# Submitted via: CDex 1.51
#
DISCID=9a0dac0c
DTITLE=Nives Onori - Nebbio
DYEAR=2013
DGENRE=Jazz
TTITLE0=You Are the Reason
TTITLE1=How Time Flies
TTITLE2=Way Back Home
TTITLE3=Ambitious Loving
TTITLE4=Burning
TTITLE5=It`s Time
TTITLE6=Mess Two Lovers Leave Behind
TTITLE7=Interlude
TTITLE8=What a Day
TTITLE9=Chum Chum
TTITLE10=Questions
TTITLE11=Day and Night
EXTD=YEAR: 2013
EXTT0=
EXTT1=
EXTT2=
EXTT3=
EXTT4=
EXTT5=
EXTT6=
EXTT7=
EXTT8=
EXTT9=
EXTT10=
EXTT11=
PLAYORDER=
